<svg width="59" height="59" viewBox="0 0 59 59" fill="none" xmlns="http://www.w3.org/2000/svg">
<path d="M54.0833 41.1525V11.4804C54.0833 8.53037 51.6742 6.34246 48.7487 6.58829H48.6012C43.4387 7.03079 35.5967 9.66121 31.2208 12.4145L30.8029 12.685C30.09 13.1275 28.91 13.1275 28.1971 12.685L27.5825 12.3162C23.2067 9.58746 15.3892 6.98162 10.2267 6.56371C7.30124 6.31787 4.91666 8.53037 4.91666 11.4558V41.1525C4.91666 43.5125 6.83416 45.725 9.19416 46.02L9.90707 46.1183C15.2417 46.8312 23.4771 49.5354 28.1971 52.1166L28.2954 52.1658C28.9592 52.5345 30.0162 52.5345 30.6554 52.1658C35.3754 49.56 43.6354 46.8312 48.9946 46.1183L49.8058 46.02C52.1658 45.725 54.0833 43.5125 54.0833 41.1525Z" stroke="#292D32" stroke-width="4" stroke-linecap="round" stroke-linejoin="round"/>
<path d="M29.5 13.4962V50.3712" stroke="#292D32" stroke-width="4" stroke-linecap="round" stroke-linejoin="round"/>
<path d="M19.0521 20.8712H13.5208" stroke="#292D32" stroke-width="4" stroke-linecap="round" stroke-linejoin="round"/>
<path d="M20.8958 28.2462H13.5208" stroke="#292D32" stroke-width="4" stroke-linecap="round" stroke-linejoin="round"/>
</svg>
