<svg width="59" height="59" viewBox="0 0 59 59" fill="none" xmlns="http://www.w3.org/2000/svg">
<path d="M45.4054 55.927H35.5721C29.6229 55.927 26.3533 52.6575 26.3533 46.7083V12.2916C26.3533 6.34246 29.6229 3.07288 35.5721 3.07288H45.4054C51.3546 3.07288 54.6242 6.34246 54.6242 12.2916V46.7083C54.6242 52.6575 51.33 55.927 45.4054 55.927ZM35.5721 6.76038C31.6879 6.76038 30.0408 8.40746 30.0408 12.2916V46.7083C30.0408 50.5925 31.6879 52.2395 35.5721 52.2395H45.4054C49.2896 52.2395 50.9367 50.5925 50.9367 46.7083V12.2916C50.9367 8.40746 49.2896 6.76038 45.4054 6.76038H35.5721Z" fill="#292D32"/>
<path d="M40.4887 16.5937H28.1971C27.1892 16.5937 26.3533 15.7579 26.3533 14.75C26.3533 13.7421 27.1892 12.9062 28.1971 12.9062H40.4887C41.4967 12.9062 42.3325 13.7421 42.3325 14.75C42.3325 15.7579 41.4967 16.5937 40.4887 16.5937Z" fill="#292D32"/>
<path d="M38.0304 46.0937H28.1971C27.1892 46.0937 26.3533 45.2579 26.3533 44.25C26.3533 43.2421 27.1892 42.4062 28.1971 42.4062H38.0304C39.0383 42.4062 39.8742 43.2421 39.8742 44.25C39.8742 45.2579 39.0383 46.0937 38.0304 46.0937Z" fill="#292D32"/>
<path d="M40.4887 36.2604C40.4641 36.2604 40.4641 36.2604 40.4887 36.2604L28.1725 36.1375C27.1646 36.1375 26.3287 35.3016 26.3533 34.2691C26.3533 33.2612 27.1891 32.45 28.1971 32.45C28.1971 32.45 28.1971 32.45 28.2216 32.45L40.5133 32.5729C41.5212 32.5729 42.3571 33.4087 42.3325 34.4412C42.3079 35.4491 41.4966 36.2604 40.4887 36.2604Z" fill="#292D32"/>
<path d="M35.5721 26.4271H28.1971C27.1892 26.4271 26.3533 25.5913 26.3533 24.5834C26.3533 23.5755 27.1892 22.7396 28.1971 22.7396H35.5721C36.58 22.7396 37.4158 23.5755 37.4158 24.5834C37.4158 25.5913 36.58 26.4271 35.5721 26.4271Z" fill="#292D32"/>
<path d="M13.4963 55.8533C11.2592 55.8533 9.14502 54.4766 7.6946 52.0675L5.67877 48.7241C4.94127 47.495 4.37585 45.4791 4.37585 44.0533V12.1687C4.37585 7.15371 8.45669 3.07288 13.4717 3.07288C18.4867 3.07288 22.5675 7.15371 22.5675 12.1687V44.0287C22.5675 45.4545 22.0021 47.4704 21.2646 48.6995L19.2488 52.0429C17.8475 54.4766 15.7334 55.8533 13.4963 55.8533ZM13.4963 6.76038C10.5217 6.76038 8.08794 9.19413 8.08794 12.1687V44.0287C8.08794 44.7908 8.45669 46.1429 8.85002 46.8066L10.8659 50.15C11.6279 51.4283 12.5867 52.1412 13.4963 52.1412C14.4059 52.1412 15.3646 51.4037 16.1267 50.15L18.1425 46.8066C18.5359 46.1429 18.9046 44.7908 18.9046 44.0287V12.1687C18.9046 9.19413 16.4709 6.76038 13.4963 6.76038Z" fill="#292D32"/>
<path d="M20.7484 19.0521H6.2196C5.21169 19.0521 4.37585 18.2163 4.37585 17.2084C4.37585 16.2005 5.21169 15.3646 6.2196 15.3646H20.7484C21.7563 15.3646 22.5921 16.2005 22.5921 17.2084C22.5921 18.2163 21.7563 19.0521 20.7484 19.0521Z" fill="#292D32"/>
</svg>
